<svg width="88" height="106" viewBox="0 0 88 106" fill="none" xmlns="http://www.w3.org/2000/svg">
<ellipse cx="30.771" cy="29.7737" rx="15.5725" ry="15.5711" fill="url(#paint0_radial_274_1401)"/>
<line x1="2" y1="-2" x2="8.04461" y2="-2" transform="matrix(0.707138 0.707075 -0.707138 0.707075 8.78625 10.0807)" stroke="url(#paint1_linear_274_1401)" stroke-width="4" stroke-linecap="round"/>
<line x1="2" y1="-2" x2="8.04461" y2="-2" transform="matrix(0.707138 -0.707075 0.707138 0.707075 10 53.1023)" stroke="url(#paint2_linear_274_1401)" stroke-width="4" stroke-linecap="round"/>
<line x1="2" y1="-2" x2="8.04461" y2="-2" transform="matrix(-0.707138 -0.707075 0.707138 -0.707075 53.4464 49.6993)" stroke="url(#paint3_linear_274_1401)" stroke-width="4" stroke-linecap="round"/>
<line x1="31" y1="2" x2="31" y2="8.04417" stroke="url(#paint4_linear_274_1401)" stroke-width="4" stroke-linecap="round"/>
<line x1="2" y1="-2" x2="8.04417" y2="-2" transform="matrix(0 -1 -1 0 29 60.0442)" stroke="url(#paint5_linear_274_1401)" stroke-width="4" stroke-linecap="round"/>
<line x1="2" y1="-2" x2="3.02207" y2="-2" transform="matrix(0.923891 -0.382654 -0.382712 -0.923867 7 38.9217)" stroke="url(#paint6_linear_274_1401)" stroke-width="4" stroke-linecap="round"/>
<line x1="2" y1="-2" x2="3.02207" y2="-2" transform="matrix(0.923891 0.382654 0.382712 -0.923867 8 19)" stroke="url(#paint7_linear_274_1401)" stroke-width="4" stroke-linecap="round"/>
<line x1="2" y1="-2" x2="3.02176" y2="-2" transform="matrix(0.382712 0.923867 0.923891 -0.382654 24 6)" stroke="url(#paint8_linear_274_1401)" stroke-width="4" stroke-linecap="round"/>
<line x1="2" y1="-2" x2="3.02176" y2="-2" transform="matrix(-0.382712 0.923867 0.923891 0.382654 43.9219 8)" stroke="url(#paint9_linear_274_1401)" stroke-width="4" stroke-linecap="round"/>
<line x1="2" y1="-2" x2="3.02207" y2="-2" transform="matrix(-0.923891 0.382654 0.382712 0.923867 55.6399 24)" stroke="url(#paint10_linear_274_1401)" stroke-width="4" stroke-linecap="round"/>
<line x1="2" y1="-2" x2="3.02207" y2="-2" transform="matrix(-0.923891 -0.382654 -0.382712 0.923867 53.6399 41.9217)" stroke="url(#paint11_linear_274_1401)" stroke-width="4" stroke-linecap="round"/>
<line x1="2" y1="-2" x2="3.02176" y2="-2" transform="matrix(-0.382712 -0.923867 -0.923891 0.382654 38.9219 54.6395)" stroke="url(#paint12_linear_274_1401)" stroke-width="4" stroke-linecap="round"/>
<line x1="2" y1="-2" x2="3.02176" y2="-2" transform="matrix(0.382712 -0.923867 -0.923891 -0.382654 18 51.6395)" stroke="url(#paint13_linear_274_1401)" stroke-width="4" stroke-linecap="round"/>
<line x1="2" y1="-2" x2="8.04461" y2="-2" transform="matrix(-0.707138 0.707075 -0.707138 -0.707075 52.9884 10.0807)" stroke="url(#paint14_linear_274_1401)" stroke-width="4" stroke-linecap="round"/>
<line x1="58.9665" y1="31.4666" x2="52.9214" y2="31.4666" stroke="url(#paint15_linear_274_1401)" stroke-width="4" stroke-linecap="round"/>
<line x1="2" y1="-2" x2="8.04506" y2="-2" transform="matrix(1 0 0 -1 1 29.7772)" stroke="url(#paint16_linear_274_1401)" stroke-width="4" stroke-linecap="round"/>
<g filter="url(#filter0_di_274_1401)">
<path d="M78.2842 61H5.44364C-1.54609 35.2054 18.6874 30.8334 26.7808 39.1401C27.3694 30.3962 37.8172 24.7126 42.2318 33.0194C45.1748 9.84791 70.9266 16.4059 70.9266 33.0194C87.4812 33.0194 86.3776 56.628 78.2842 61Z" fill="white"/>
</g>
<g filter="url(#filter1_d_274_1401)">
<path d="M25 62L30.1962 71.2H19.8038L25 62Z" fill="url(#paint17_linear_274_1401)"/>
<ellipse cx="25" cy="73.4667" rx="6" ry="4.53333" fill="url(#paint18_linear_274_1401)"/>
</g>
<g filter="url(#filter2_d_274_1401)">
<path d="M41 82L46.1962 91.2H35.8038L41 82Z" fill="url(#paint19_linear_274_1401)"/>
<ellipse cx="41" cy="93.4667" rx="6" ry="4.53333" fill="url(#paint20_linear_274_1401)"/>
</g>
<g filter="url(#filter3_d_274_1401)">
<path d="M59 66L64.1962 75.2H53.8038L59 66Z" fill="url(#paint21_linear_274_1401)"/>
<ellipse cx="59" cy="77.4667" rx="6" ry="4.53333" fill="url(#paint22_linear_274_1401)"/>
</g>
<defs>
<filter id="filter0_di_274_1401" x="0" y="18" width="88" height="52" filterUnits="userSpaceOnUse" color-interpolation-filters="sRGB">
<feFlood flood-opacity="0" result="BackgroundImageFix"/>
<feColorMatrix in="SourceAlpha" type="matrix" values="0 0 0 0 0 0 0 0 0 0 0 0 0 0 0 0 0 0 127 0" result="hardAlpha"/>
<feOffset dy="4"/>
<feGaussianBlur stdDeviation="2"/>
<feComposite in2="hardAlpha" operator="out"/>
<feColorMatrix type="matrix" values="0 0 0 0 0.760784 0 0 0 0 0.854902 0 0 0 0 0.898039 0 0 0 0.25 0"/>
<feBlend mode="normal" in2="BackgroundImageFix" result="effect1_dropShadow_274_1401"/>
<feBlend mode="normal" in="SourceGraphic" in2="effect1_dropShadow_274_1401" result="shape"/>
<feColorMatrix in="SourceAlpha" type="matrix" values="0 0 0 0 0 0 0 0 0 0 0 0 0 0 0 0 0 0 127 0" result="hardAlpha"/>
<feOffset dy="9"/>
<feGaussianBlur stdDeviation="4.5"/>
<feComposite in2="hardAlpha" operator="arithmetic" k2="-1" k3="1"/>
<feColorMatrix type="matrix" values="0 0 0 0 0.759117 0 0 0 0 0.852976 0 0 0 0 0.896891 0 0 0 0.4 0"/>
<feBlend mode="normal" in2="shape" result="effect2_innerShadow_274_1401"/>
</filter>
<filter id="filter1_d_274_1401" x="15" y="62" width="20" height="24" filterUnits="userSpaceOnUse" color-interpolation-filters="sRGB">
<feFlood flood-opacity="0" result="BackgroundImageFix"/>
<feColorMatrix in="SourceAlpha" type="matrix" values="0 0 0 0 0 0 0 0 0 0 0 0 0 0 0 0 0 0 127 0" result="hardAlpha"/>
<feOffset dy="4"/>
<feGaussianBlur stdDeviation="2"/>
<feComposite in2="hardAlpha" operator="out"/>
<feColorMatrix type="matrix" values="0 0 0 0 0.356863 0 0 0 0 0.784314 0 0 0 0 0.984314 0 0 0 0.25 0"/>
<feBlend mode="normal" in2="BackgroundImageFix" result="effect1_dropShadow_274_1401"/>
<feBlend mode="normal" in="SourceGraphic" in2="effect1_dropShadow_274_1401" result="shape"/>
</filter>
<filter id="filter2_d_274_1401" x="31" y="82" width="20" height="24" filterUnits="userSpaceOnUse" color-interpolation-filters="sRGB">
<feFlood flood-opacity="0" result="BackgroundImageFix"/>
<feColorMatrix in="SourceAlpha" type="matrix" values="0 0 0 0 0 0 0 0 0 0 0 0 0 0 0 0 0 0 127 0" result="hardAlpha"/>
<feOffset dy="4"/>
<feGaussianBlur stdDeviation="2"/>
<feComposite in2="hardAlpha" operator="out"/>
<feColorMatrix type="matrix" values="0 0 0 0 0.356863 0 0 0 0 0.784314 0 0 0 0 0.984314 0 0 0 0.25 0"/>
<feBlend mode="normal" in2="BackgroundImageFix" result="effect1_dropShadow_274_1401"/>
<feBlend mode="normal" in="SourceGraphic" in2="effect1_dropShadow_274_1401" result="shape"/>
</filter>
<filter id="filter3_d_274_1401" x="49" y="66" width="20" height="24" filterUnits="userSpaceOnUse" color-interpolation-filters="sRGB">
<feFlood flood-opacity="0" result="BackgroundImageFix"/>
<feColorMatrix in="SourceAlpha" type="matrix" values="0 0 0 0 0 0 0 0 0 0 0 0 0 0 0 0 0 0 127 0" result="hardAlpha"/>
<feOffset dy="4"/>
<feGaussianBlur stdDeviation="2"/>
<feComposite in2="hardAlpha" operator="out"/>
<feColorMatrix type="matrix" values="0 0 0 0 0.356863 0 0 0 0 0.784314 0 0 0 0 0.984314 0 0 0 0.25 0"/>
<feBlend mode="normal" in2="BackgroundImageFix" result="effect1_dropShadow_274_1401"/>
<feBlend mode="normal" in="SourceGraphic" in2="effect1_dropShadow_274_1401" result="shape"/>
</filter>
<radialGradient id="paint0_radial_274_1401" cx="0" cy="0" r="1" gradientUnits="userSpaceOnUse" gradientTransform="translate(24.5878 43.0549) rotate(-61.8193) scale(29.0955 29.0969)">
<stop stop-color="#FFAA06"/>
<stop offset="0.549113" stop-color="#FFCE4E"/>
<stop offset="0.804427" stop-color="#FFDC84"/>
<stop offset="1" stop-color="#FEE6A7"/>
</radialGradient>
<linearGradient id="paint1_linear_274_1401" x1="0" y1="0.5" x2="10.0446" y2="0.5" gradientUnits="userSpaceOnUse">
<stop stop-color="#FFDC84"/>
<stop offset="1" stop-color="#FFAA06"/>
</linearGradient>
<linearGradient id="paint2_linear_274_1401" x1="0" y1="0.5" x2="10.0446" y2="0.5" gradientUnits="userSpaceOnUse">
<stop stop-color="#FFDC84"/>
<stop offset="1" stop-color="#FFAA06"/>
</linearGradient>
<linearGradient id="paint3_linear_274_1401" x1="0" y1="0.5" x2="10.0446" y2="0.5" gradientUnits="userSpaceOnUse">
<stop stop-color="#FFDC84"/>
<stop offset="1" stop-color="#FFAA06"/>
</linearGradient>
<linearGradient id="paint4_linear_274_1401" x1="28.5" y1="0" x2="28.5" y2="10.0442" gradientUnits="userSpaceOnUse">
<stop stop-color="#FFDC84"/>
<stop offset="1" stop-color="#FFAA06"/>
</linearGradient>
<linearGradient id="paint5_linear_274_1401" x1="0" y1="0.5" x2="10.0442" y2="0.5" gradientUnits="userSpaceOnUse">
<stop stop-color="#FFDC84"/>
<stop offset="1" stop-color="#FFAA06"/>
</linearGradient>
<linearGradient id="paint6_linear_274_1401" x1="0" y1="0.5" x2="5.02207" y2="0.5" gradientUnits="userSpaceOnUse">
<stop stop-color="#FFDC84"/>
<stop offset="1" stop-color="#FFAA06"/>
</linearGradient>
<linearGradient id="paint7_linear_274_1401" x1="0" y1="0.5" x2="5.02207" y2="0.5" gradientUnits="userSpaceOnUse">
<stop stop-color="#FFDC84"/>
<stop offset="1" stop-color="#FFAA06"/>
</linearGradient>
<linearGradient id="paint8_linear_274_1401" x1="0" y1="0.5" x2="5.02176" y2="0.5" gradientUnits="userSpaceOnUse">
<stop stop-color="#FFDC84"/>
<stop offset="1" stop-color="#FFAA06"/>
</linearGradient>
<linearGradient id="paint9_linear_274_1401" x1="0" y1="0.5" x2="5.02176" y2="0.5" gradientUnits="userSpaceOnUse">
<stop stop-color="#FFDC84"/>
<stop offset="1" stop-color="#FFAA06"/>
</linearGradient>
<linearGradient id="paint10_linear_274_1401" x1="0" y1="0.5" x2="5.02207" y2="0.5" gradientUnits="userSpaceOnUse">
<stop stop-color="#FFDC84"/>
<stop offset="1" stop-color="#FFAA06"/>
</linearGradient>
<linearGradient id="paint11_linear_274_1401" x1="0" y1="0.5" x2="5.02207" y2="0.5" gradientUnits="userSpaceOnUse">
<stop stop-color="#FFDC84"/>
<stop offset="1" stop-color="#FFAA06"/>
</linearGradient>
<linearGradient id="paint12_linear_274_1401" x1="0" y1="0.5" x2="5.02176" y2="0.5" gradientUnits="userSpaceOnUse">
<stop stop-color="#FFDC84"/>
<stop offset="1" stop-color="#FFAA06"/>
</linearGradient>
<linearGradient id="paint13_linear_274_1401" x1="0" y1="0.5" x2="5.02176" y2="0.5" gradientUnits="userSpaceOnUse">
<stop stop-color="#FFDC84"/>
<stop offset="1" stop-color="#FFAA06"/>
</linearGradient>
<linearGradient id="paint14_linear_274_1401" x1="0" y1="0.5" x2="10.0446" y2="0.5" gradientUnits="userSpaceOnUse">
<stop stop-color="#FFDC84"/>
<stop offset="1" stop-color="#FFAA06"/>
</linearGradient>
<linearGradient id="paint15_linear_274_1401" x1="60.9665" y1="28.9666" x2="50.9214" y2="28.9666" gradientUnits="userSpaceOnUse">
<stop stop-color="#FFDC84"/>
<stop offset="1" stop-color="#FFAA06"/>
</linearGradient>
<linearGradient id="paint16_linear_274_1401" x1="0" y1="0.5" x2="10.0451" y2="0.5" gradientUnits="userSpaceOnUse">
<stop stop-color="#FFDC84"/>
<stop offset="1" stop-color="#FFAA06"/>
</linearGradient>
<linearGradient id="paint17_linear_274_1401" x1="19" y1="68.1333" x2="31" y2="68.1333" gradientUnits="userSpaceOnUse">
<stop offset="0.305" stop-color="#5BC8FB"/>
<stop offset="1" stop-color="#8FD9FB"/>
</linearGradient>
<linearGradient id="paint18_linear_274_1401" x1="19" y1="73.4667" x2="31" y2="73.4667" gradientUnits="userSpaceOnUse">
<stop offset="0.305" stop-color="#5BC8FB"/>
<stop offset="1" stop-color="#8FD9FB"/>
</linearGradient>
<linearGradient id="paint19_linear_274_1401" x1="35" y1="88.1333" x2="47" y2="88.1333" gradientUnits="userSpaceOnUse">
<stop offset="0.305" stop-color="#5BC8FB"/>
<stop offset="1" stop-color="#8FD9FB"/>
</linearGradient>
<linearGradient id="paint20_linear_274_1401" x1="35" y1="93.4667" x2="47" y2="93.4667" gradientUnits="userSpaceOnUse">
<stop offset="0.305" stop-color="#5BC8FB"/>
<stop offset="1" stop-color="#8FD9FB"/>
</linearGradient>
<linearGradient id="paint21_linear_274_1401" x1="53" y1="72.1333" x2="65" y2="72.1333" gradientUnits="userSpaceOnUse">
<stop offset="0.305" stop-color="#5BC8FB"/>
<stop offset="1" stop-color="#8FD9FB"/>
</linearGradient>
<linearGradient id="paint22_linear_274_1401" x1="53" y1="77.4667" x2="65" y2="77.4667" gradientUnits="userSpaceOnUse">
<stop offset="0.305" stop-color="#5BC8FB"/>
<stop offset="1" stop-color="#8FD9FB"/>
</linearGradient>
</defs>
</svg>
