<svg width="90" height="129" viewBox="0 0 90 129" fill="none" xmlns="http://www.w3.org/2000/svg">
<path d="M45.3435 30.2262C45.3435 34.3559 43.7028 38.3165 40.7824 41.2367C37.862 44.1568 33.9011 45.7974 29.771 45.7974C25.6409 45.7974 21.68 44.1568 18.7596 41.2367C15.8392 38.3165 14.1985 34.356 14.1985 30.2262L29.771 30.2262H45.3435Z" fill="url(#paint0_radial_274_4747)"/>
<line x1="2" y1="-2" x2="8.04461" y2="-2" transform="matrix(0.707138 -0.707075 -0.707138 -0.707075 7.78627 49.9192)" stroke="url(#paint1_linear_274_4747)" stroke-width="4" stroke-linecap="round"/>
<line x1="2" y1="-2" x2="8.04417" y2="-2" transform="matrix(0 -1 -1 0 28 60)" stroke="url(#paint2_linear_274_4747)" stroke-width="4" stroke-linecap="round"/>
<line x1="2" y1="-2" x2="3.02207" y2="-2" transform="matrix(0.923891 -0.382654 0.382712 0.923867 7 41)" stroke="url(#paint3_linear_274_4747)" stroke-width="4" stroke-linecap="round"/>
<line x1="2" y1="-2" x2="3.02176" y2="-2" transform="matrix(0.382712 -0.923867 0.923891 0.382654 23 54)" stroke="url(#paint4_linear_274_4747)" stroke-width="4" stroke-linecap="round"/>
<line x1="2" y1="-2" x2="3.02176" y2="-2" transform="matrix(-0.382712 -0.923867 0.923891 -0.382654 42.9219 52)" stroke="url(#paint5_linear_274_4747)" stroke-width="4" stroke-linecap="round"/>
<line x1="2" y1="-2" x2="3.02207" y2="-2" transform="matrix(-0.923891 -0.382654 0.382712 -0.923867 54.6399 36)" stroke="url(#paint6_linear_274_4747)" stroke-width="4" stroke-linecap="round"/>
<line x1="2" y1="-2" x2="8.04461" y2="-2" transform="matrix(-0.707138 -0.707075 -0.707138 0.707075 51.9884 49.9192)" stroke="url(#paint7_linear_274_4747)" stroke-width="4" stroke-linecap="round"/>
<line y1="-1" x2="58" y2="-1" transform="matrix(0.999984 0.00566669 0.00566669 -0.999984 1.00046 28.8357)" stroke="black" stroke-width="2"/>
<g filter="url(#filter0_di_274_4747)">
<path d="M80.2842 73H7.44364C0.453907 47.2054 20.6874 42.8334 28.7808 51.1401C29.3694 42.3962 39.8172 36.7126 44.2318 45.0194C47.1748 21.8479 72.9266 28.4059 72.9266 45.0194C89.4812 45.0194 88.3776 68.628 80.2842 73Z" fill="white"/>
</g>
<g filter="url(#filter1_d_274_4747)">
<path d="M45 75L50.1962 84.2H39.8038L45 75Z" fill="url(#paint8_linear_274_4747)"/>
<ellipse cx="45" cy="86.4667" rx="6" ry="4.53333" fill="url(#paint9_linear_274_4747)"/>
</g>
<g filter="url(#filter2_d_274_4747)">
<path d="M17 75L22.1962 84.2H11.8038L17 75Z" fill="url(#paint10_linear_274_4747)"/>
<ellipse cx="17" cy="86.4667" rx="6" ry="4.53333" fill="url(#paint11_linear_274_4747)"/>
</g>
<g filter="url(#filter3_d_274_4747)">
<path d="M33 95L38.1962 104.2H27.8038L33 95Z" fill="url(#paint12_linear_274_4747)"/>
<ellipse cx="33" cy="106.467" rx="6" ry="4.53333" fill="url(#paint13_linear_274_4747)"/>
</g>
<g filter="url(#filter4_d_274_4747)">
<path d="M79 97L84.1962 106.2H73.8038L79 97Z" fill="url(#paint14_linear_274_4747)"/>
<ellipse cx="79" cy="108.467" rx="6" ry="4.53333" fill="url(#paint15_linear_274_4747)"/>
</g>
<g filter="url(#filter5_d_274_4747)">
<path d="M69 75L74.1962 84.2H63.8038L69 75Z" fill="url(#paint16_linear_274_4747)"/>
<ellipse cx="69" cy="86.4667" rx="6" ry="4.53333" fill="url(#paint17_linear_274_4747)"/>
</g>
<g filter="url(#filter6_d_274_4747)">
<g filter="url(#filter7_i_274_4747)">
<path d="M48.7953 74.5253L55.2671 62.5253C55.4416 62.2017 55.7796 62 56.1472 62H64.8513C65.6438 62 66.1214 62.878 65.6908 63.5433L62.0874 69.1112C61.6568 69.7766 62.1344 70.6545 62.9269 70.6545H67.8387C68.6909 70.6545 69.1526 71.6523 68.6009 72.3019L56.6511 86.3718C55.9504 87.1968 54.6212 86.4757 54.9306 85.4386L57.3632 77.2859C57.5545 76.6446 57.0741 76 56.4049 76H49.6755C48.9185 76 48.436 75.1916 48.7953 74.5253Z" fill="url(#paint18_radial_274_4747)"/>
</g>
</g>
<defs>
<filter id="filter0_di_274_4747" x="2" y="30" width="88" height="52" filterUnits="userSpaceOnUse" color-interpolation-filters="sRGB">
<feFlood flood-opacity="0" result="BackgroundImageFix"/>
<feColorMatrix in="SourceAlpha" type="matrix" values="0 0 0 0 0 0 0 0 0 0 0 0 0 0 0 0 0 0 127 0" result="hardAlpha"/>
<feOffset dy="4"/>
<feGaussianBlur stdDeviation="2"/>
<feComposite in2="hardAlpha" operator="out"/>
<feColorMatrix type="matrix" values="0 0 0 0 0.760784 0 0 0 0 0.854902 0 0 0 0 0.898039 0 0 0 0.25 0"/>
<feBlend mode="normal" in2="BackgroundImageFix" result="effect1_dropShadow_274_4747"/>
<feBlend mode="normal" in="SourceGraphic" in2="effect1_dropShadow_274_4747" result="shape"/>
<feColorMatrix in="SourceAlpha" type="matrix" values="0 0 0 0 0 0 0 0 0 0 0 0 0 0 0 0 0 0 127 0" result="hardAlpha"/>
<feOffset dy="9"/>
<feGaussianBlur stdDeviation="4.5"/>
<feComposite in2="hardAlpha" operator="arithmetic" k2="-1" k3="1"/>
<feColorMatrix type="matrix" values="0 0 0 0 0.759117 0 0 0 0 0.852976 0 0 0 0 0.896891 0 0 0 0.4 0"/>
<feBlend mode="normal" in2="shape" result="effect2_innerShadow_274_4747"/>
</filter>
<filter id="filter1_d_274_4747" x="35" y="75" width="20" height="24" filterUnits="userSpaceOnUse" color-interpolation-filters="sRGB">
<feFlood flood-opacity="0" result="BackgroundImageFix"/>
<feColorMatrix in="SourceAlpha" type="matrix" values="0 0 0 0 0 0 0 0 0 0 0 0 0 0 0 0 0 0 127 0" result="hardAlpha"/>
<feOffset dy="4"/>
<feGaussianBlur stdDeviation="2"/>
<feComposite in2="hardAlpha" operator="out"/>
<feColorMatrix type="matrix" values="0 0 0 0 0.356863 0 0 0 0 0.784314 0 0 0 0 0.984314 0 0 0 0.25 0"/>
<feBlend mode="normal" in2="BackgroundImageFix" result="effect1_dropShadow_274_4747"/>
<feBlend mode="normal" in="SourceGraphic" in2="effect1_dropShadow_274_4747" result="shape"/>
</filter>
<filter id="filter2_d_274_4747" x="7" y="75" width="20" height="24" filterUnits="userSpaceOnUse" color-interpolation-filters="sRGB">
<feFlood flood-opacity="0" result="BackgroundImageFix"/>
<feColorMatrix in="SourceAlpha" type="matrix" values="0 0 0 0 0 0 0 0 0 0 0 0 0 0 0 0 0 0 127 0" result="hardAlpha"/>
<feOffset dy="4"/>
<feGaussianBlur stdDeviation="2"/>
<feComposite in2="hardAlpha" operator="out"/>
<feColorMatrix type="matrix" values="0 0 0 0 0.356863 0 0 0 0 0.784314 0 0 0 0 0.984314 0 0 0 0.25 0"/>
<feBlend mode="normal" in2="BackgroundImageFix" result="effect1_dropShadow_274_4747"/>
<feBlend mode="normal" in="SourceGraphic" in2="effect1_dropShadow_274_4747" result="shape"/>
</filter>
<filter id="filter3_d_274_4747" x="23" y="95" width="20" height="24" filterUnits="userSpaceOnUse" color-interpolation-filters="sRGB">
<feFlood flood-opacity="0" result="BackgroundImageFix"/>
<feColorMatrix in="SourceAlpha" type="matrix" values="0 0 0 0 0 0 0 0 0 0 0 0 0 0 0 0 0 0 127 0" result="hardAlpha"/>
<feOffset dy="4"/>
<feGaussianBlur stdDeviation="2"/>
<feComposite in2="hardAlpha" operator="out"/>
<feColorMatrix type="matrix" values="0 0 0 0 0.356863 0 0 0 0 0.784314 0 0 0 0 0.984314 0 0 0 0.25 0"/>
<feBlend mode="normal" in2="BackgroundImageFix" result="effect1_dropShadow_274_4747"/>
<feBlend mode="normal" in="SourceGraphic" in2="effect1_dropShadow_274_4747" result="shape"/>
</filter>
<filter id="filter4_d_274_4747" x="69" y="97" width="20" height="24" filterUnits="userSpaceOnUse" color-interpolation-filters="sRGB">
<feFlood flood-opacity="0" result="BackgroundImageFix"/>
<feColorMatrix in="SourceAlpha" type="matrix" values="0 0 0 0 0 0 0 0 0 0 0 0 0 0 0 0 0 0 127 0" result="hardAlpha"/>
<feOffset dy="4"/>
<feGaussianBlur stdDeviation="2"/>
<feComposite in2="hardAlpha" operator="out"/>
<feColorMatrix type="matrix" values="0 0 0 0 0.356863 0 0 0 0 0.784314 0 0 0 0 0.984314 0 0 0 0.25 0"/>
<feBlend mode="normal" in2="BackgroundImageFix" result="effect1_dropShadow_274_4747"/>
<feBlend mode="normal" in="SourceGraphic" in2="effect1_dropShadow_274_4747" result="shape"/>
</filter>
<filter id="filter5_d_274_4747" x="59" y="75" width="20" height="24" filterUnits="userSpaceOnUse" color-interpolation-filters="sRGB">
<feFlood flood-opacity="0" result="BackgroundImageFix"/>
<feColorMatrix in="SourceAlpha" type="matrix" values="0 0 0 0 0 0 0 0 0 0 0 0 0 0 0 0 0 0 127 0" result="hardAlpha"/>
<feOffset dy="4"/>
<feGaussianBlur stdDeviation="2"/>
<feComposite in2="hardAlpha" operator="out"/>
<feColorMatrix type="matrix" values="0 0 0 0 0.356863 0 0 0 0 0.784314 0 0 0 0 0.984314 0 0 0 0.25 0"/>
<feBlend mode="normal" in2="BackgroundImageFix" result="effect1_dropShadow_274_4747"/>
<feBlend mode="normal" in="SourceGraphic" in2="effect1_dropShadow_274_4747" result="shape"/>
</filter>
<filter id="filter6_d_274_4747" x="44" y="62" width="30" height="36" filterUnits="userSpaceOnUse" color-interpolation-filters="sRGB">
<feFlood flood-opacity="0" result="BackgroundImageFix"/>
<feColorMatrix in="SourceAlpha" type="matrix" values="0 0 0 0 0 0 0 0 0 0 0 0 0 0 0 0 0 0 127 0" result="hardAlpha"/>
<feOffset dy="4"/>
<feGaussianBlur stdDeviation="2"/>
<feComposite in2="hardAlpha" operator="out"/>
<feColorMatrix type="matrix" values="0 0 0 0 1 0 0 0 0 0.666667 0 0 0 0 0.0235294 0 0 0 0.25 0"/>
<feBlend mode="normal" in2="BackgroundImageFix" result="effect1_dropShadow_274_4747"/>
<feBlend mode="normal" in="SourceGraphic" in2="effect1_dropShadow_274_4747" result="shape"/>
</filter>
<filter id="filter7_i_274_4747" x="48.6741" y="62" width="20.1665" height="34.7302" filterUnits="userSpaceOnUse" color-interpolation-filters="sRGB">
<feFlood flood-opacity="0" result="BackgroundImageFix"/>
<feBlend mode="normal" in="SourceGraphic" in2="BackgroundImageFix" result="shape"/>
<feColorMatrix in="SourceAlpha" type="matrix" values="0 0 0 0 0 0 0 0 0 0 0 0 0 0 0 0 0 0 127 0" result="hardAlpha"/>
<feOffset dy="10"/>
<feGaussianBlur stdDeviation="5"/>
<feComposite in2="hardAlpha" operator="arithmetic" k2="-1" k3="1"/>
<feColorMatrix type="matrix" values="0 0 0 0 1 0 0 0 0 1 0 0 0 0 1 0 0 0 0.25 0"/>
<feBlend mode="normal" in2="shape" result="effect1_innerShadow_274_4747"/>
</filter>
<radialGradient id="paint0_radial_274_4747" cx="0" cy="0" r="1" gradientUnits="userSpaceOnUse" gradientTransform="translate(23.5878 16.945) rotate(61.8193) scale(29.0955 29.0969)">
<stop stop-color="#FFAA06"/>
<stop offset="0.549113" stop-color="#FFCE4E"/>
<stop offset="0.804427" stop-color="#FFDC84"/>
<stop offset="1" stop-color="#FEE6A7"/>
</radialGradient>
<linearGradient id="paint1_linear_274_4747" x1="0" y1="0.5" x2="10.0446" y2="0.5" gradientUnits="userSpaceOnUse">
<stop stop-color="#FFDC84"/>
<stop offset="1" stop-color="#FFAA06"/>
</linearGradient>
<linearGradient id="paint2_linear_274_4747" x1="0" y1="0.5" x2="10.0442" y2="0.5" gradientUnits="userSpaceOnUse">
<stop stop-color="#FFDC84"/>
<stop offset="1" stop-color="#FFAA06"/>
</linearGradient>
<linearGradient id="paint3_linear_274_4747" x1="0" y1="0.5" x2="5.02207" y2="0.5" gradientUnits="userSpaceOnUse">
<stop stop-color="#FFDC84"/>
<stop offset="1" stop-color="#FFAA06"/>
</linearGradient>
<linearGradient id="paint4_linear_274_4747" x1="0" y1="0.5" x2="5.02176" y2="0.5" gradientUnits="userSpaceOnUse">
<stop stop-color="#FFDC84"/>
<stop offset="1" stop-color="#FFAA06"/>
</linearGradient>
<linearGradient id="paint5_linear_274_4747" x1="0" y1="0.5" x2="5.02176" y2="0.5" gradientUnits="userSpaceOnUse">
<stop stop-color="#FFDC84"/>
<stop offset="1" stop-color="#FFAA06"/>
</linearGradient>
<linearGradient id="paint6_linear_274_4747" x1="0" y1="0.5" x2="5.02207" y2="0.5" gradientUnits="userSpaceOnUse">
<stop stop-color="#FFDC84"/>
<stop offset="1" stop-color="#FFAA06"/>
</linearGradient>
<linearGradient id="paint7_linear_274_4747" x1="0" y1="0.5" x2="10.0446" y2="0.5" gradientUnits="userSpaceOnUse">
<stop stop-color="#FFDC84"/>
<stop offset="1" stop-color="#FFAA06"/>
</linearGradient>
<linearGradient id="paint8_linear_274_4747" x1="39" y1="81.1333" x2="51" y2="81.1333" gradientUnits="userSpaceOnUse">
<stop offset="0.305" stop-color="#5BC8FB"/>
<stop offset="1" stop-color="#8FD9FB"/>
</linearGradient>
<linearGradient id="paint9_linear_274_4747" x1="39" y1="86.4667" x2="51" y2="86.4667" gradientUnits="userSpaceOnUse">
<stop offset="0.305" stop-color="#5BC8FB"/>
<stop offset="1" stop-color="#8FD9FB"/>
</linearGradient>
<linearGradient id="paint10_linear_274_4747" x1="11" y1="81.1333" x2="23" y2="81.1333" gradientUnits="userSpaceOnUse">
<stop offset="0.305" stop-color="#5BC8FB"/>
<stop offset="1" stop-color="#8FD9FB"/>
</linearGradient>
<linearGradient id="paint11_linear_274_4747" x1="11" y1="86.4667" x2="23" y2="86.4667" gradientUnits="userSpaceOnUse">
<stop offset="0.305" stop-color="#5BC8FB"/>
<stop offset="1" stop-color="#8FD9FB"/>
</linearGradient>
<linearGradient id="paint12_linear_274_4747" x1="27" y1="101.133" x2="39" y2="101.133" gradientUnits="userSpaceOnUse">
<stop offset="0.305" stop-color="#5BC8FB"/>
<stop offset="1" stop-color="#8FD9FB"/>
</linearGradient>
<linearGradient id="paint13_linear_274_4747" x1="27" y1="106.467" x2="39" y2="106.467" gradientUnits="userSpaceOnUse">
<stop offset="0.305" stop-color="#5BC8FB"/>
<stop offset="1" stop-color="#8FD9FB"/>
</linearGradient>
<linearGradient id="paint14_linear_274_4747" x1="73" y1="103.133" x2="85" y2="103.133" gradientUnits="userSpaceOnUse">
<stop offset="0.305" stop-color="#5BC8FB"/>
<stop offset="1" stop-color="#8FD9FB"/>
</linearGradient>
<linearGradient id="paint15_linear_274_4747" x1="73" y1="108.467" x2="85" y2="108.467" gradientUnits="userSpaceOnUse">
<stop offset="0.305" stop-color="#5BC8FB"/>
<stop offset="1" stop-color="#8FD9FB"/>
</linearGradient>
<linearGradient id="paint16_linear_274_4747" x1="63" y1="81.1333" x2="75" y2="81.1333" gradientUnits="userSpaceOnUse">
<stop offset="0.305" stop-color="#5BC8FB"/>
<stop offset="1" stop-color="#8FD9FB"/>
</linearGradient>
<linearGradient id="paint17_linear_274_4747" x1="63" y1="86.4667" x2="75" y2="86.4667" gradientUnits="userSpaceOnUse">
<stop offset="0.305" stop-color="#5BC8FB"/>
<stop offset="1" stop-color="#8FD9FB"/>
</linearGradient>
<radialGradient id="paint18_radial_274_4747" cx="0" cy="0" r="1" gradientUnits="userSpaceOnUse" gradientTransform="translate(58.8608 76) rotate(168.702) scale(17.8148 11.783)">
<stop stop-color="#FFE0A3"/>
<stop offset="1" stop-color="#FFAA06"/>
</radialGradient>
</defs>
</svg>
